<svg width="100" height="18" viewBox="0 0 100 18" fill="none" xmlns="http://www.w3.org/2000/svg">
<path d="M0.585227 14V0.909091H5.00852C6.03551 0.909091 6.875 1.09446 7.52699 1.4652C8.18324 1.83168 8.66903 2.32812 8.98438 2.95455C9.29972 3.58097 9.45739 4.27983 9.45739 5.05114C9.45739 5.82244 9.29972 6.52344 8.98438 7.15412C8.6733 7.7848 8.19176 8.28764 7.53977 8.66264C6.88778 9.03338 6.05256 9.21875 5.03409 9.21875H1.86364V7.8125H4.98295C5.68608 7.8125 6.25071 7.69105 6.67685 7.44815C7.10298 7.20526 7.41193 6.87713 7.60369 6.46378C7.79972 6.04616 7.89773 5.57528 7.89773 5.05114C7.89773 4.52699 7.79972 4.05824 7.60369 3.64489C7.41193 3.23153 7.10085 2.90767 6.67045 2.6733C6.24006 2.43466 5.66903 2.31534 4.95739 2.31534H2.17045V14H0.585227ZM15.6896 14.2045C14.8033 14.2045 14.0256 13.9936 13.3565 13.5717C12.6918 13.1499 12.1719 12.5597 11.7969 11.8011C11.4261 11.0426 11.2408 10.1562 11.2408 9.14205C11.2408 8.11932 11.4261 7.22656 11.7969 6.46378C12.1719 5.70099 12.6918 5.10866 13.3565 4.68679C14.0256 4.26491 14.8033 4.05398 15.6896 4.05398C16.576 4.05398 17.3516 4.26491 18.0163 4.68679C18.6854 5.10866 19.2053 5.70099 19.576 6.46378C19.951 7.22656 20.1385 8.11932 20.1385 9.14205C20.1385 10.1562 19.951 11.0426 19.576 11.8011C19.2053 12.5597 18.6854 13.1499 18.0163 13.5717C17.3516 13.9936 16.576 14.2045 15.6896 14.2045ZM15.6896 12.8494C16.3629 12.8494 16.9169 12.6768 17.3516 12.3317C17.7862 11.9865 18.108 11.5327 18.3168 10.9702C18.5256 10.4077 18.63 9.7983 18.63 9.14205C18.63 8.4858 18.5256 7.87429 18.3168 7.30753C18.108 6.74077 17.7862 6.28267 17.3516 5.93324C16.9169 5.58381 16.3629 5.40909 15.6896 5.40909C15.0163 5.40909 14.4624 5.58381 14.0277 5.93324C13.593 6.28267 13.2713 6.74077 13.0625 7.30753C12.8537 7.87429 12.7493 8.4858 12.7493 9.14205C12.7493 9.7983 12.8537 10.4077 13.0625 10.9702C13.2713 11.5327 13.593 11.9865 14.0277 12.3317C14.4624 12.6768 15.0163 12.8494 15.6896 12.8494ZM29.3958 6.38068L28.0407 6.7642C27.9554 6.53835 27.8297 6.31889 27.6635 6.10582C27.5016 5.88849 27.28 5.70952 26.9988 5.56889C26.7175 5.42827 26.3574 5.35795 25.9185 5.35795C25.3176 5.35795 24.8169 5.49645 24.4164 5.77344C24.0201 6.04616 23.8219 6.39347 23.8219 6.81534C23.8219 7.19034 23.9583 7.48651 24.231 7.70384C24.5037 7.92116 24.9299 8.10227 25.5094 8.24716L26.9668 8.60511C27.8446 8.81818 28.4988 9.14418 28.9292 9.5831C29.3596 10.0178 29.5748 10.5781 29.5748 11.2642C29.5748 11.8267 29.4128 12.3295 29.089 12.7727C28.7694 13.2159 28.3219 13.5653 27.7466 13.821C27.1713 14.0767 26.5023 14.2045 25.7395 14.2045C24.7381 14.2045 23.9093 13.9872 23.253 13.5526C22.5968 13.1179 22.1813 12.483 22.0066 11.6477L23.4384 11.2898C23.5748 11.8182 23.8326 12.2145 24.2118 12.4787C24.5953 12.7429 25.0961 12.875 25.714 12.875C26.4171 12.875 26.9753 12.7259 27.3887 12.4276C27.8063 12.125 28.0151 11.7628 28.0151 11.3409C28.0151 11 27.8958 10.7145 27.6571 10.4844C27.4185 10.25 27.052 10.0753 26.5577 9.96023L24.9213 9.5767C24.0222 9.36364 23.3617 9.03338 22.9398 8.58594C22.5222 8.13423 22.3134 7.5696 22.3134 6.89205C22.3134 6.33807 22.4689 5.84801 22.78 5.42188C23.0953 4.99574 23.5236 4.66122 24.0648 4.41832C24.6103 4.17543 25.2282 4.05398 25.9185 4.05398C26.8901 4.05398 27.6529 4.26705 28.2069 4.69318C28.7651 5.11932 29.1614 5.68182 29.3958 6.38068ZM36.1154 4.18182V5.46023H31.0273V4.18182H36.1154ZM32.5103 1.82955H34.0188V11.1875C34.0188 11.6136 34.0806 11.9332 34.2042 12.1463C34.332 12.3551 34.494 12.4957 34.69 12.5682C34.8903 12.6364 35.1012 12.6705 35.3228 12.6705C35.489 12.6705 35.6254 12.6619 35.7319 12.6449C35.8384 12.6236 35.9237 12.6065 35.9876 12.5938L36.2944 13.9489C36.1921 13.9872 36.0494 14.0256 35.8661 14.0639C35.6829 14.1065 35.4506 14.1278 35.1694 14.1278C34.7433 14.1278 34.3256 14.0362 33.9165 13.853C33.5117 13.6697 33.1751 13.3906 32.9066 13.0156C32.6424 12.6406 32.5103 12.1676 32.5103 11.5966V1.82955ZM42.2422 17.8864C41.5135 17.8864 40.8871 17.7926 40.3629 17.6051C39.8388 17.4219 39.402 17.179 39.0526 16.8764C38.7074 16.5781 38.4325 16.2585 38.228 15.9176L39.4297 15.0739C39.5661 15.2528 39.7386 15.4574 39.9474 15.6875C40.1563 15.9219 40.4418 16.1243 40.804 16.2947C41.1705 16.4695 41.6499 16.5568 42.2422 16.5568C43.0348 16.5568 43.6889 16.3651 44.2045 15.9815C44.7202 15.598 44.978 14.9972 44.978 14.179V12.1847H44.8501C44.7393 12.3636 44.5817 12.5852 44.3771 12.8494C44.1768 13.1094 43.8871 13.3416 43.5078 13.5462C43.1328 13.7464 42.6257 13.8466 41.9865 13.8466C41.1939 13.8466 40.4822 13.6591 39.8516 13.2841C39.2251 12.9091 38.7287 12.3636 38.3622 11.6477C38 10.9318 37.8189 10.0625 37.8189 9.03977C37.8189 8.03409 37.9957 7.15838 38.3494 6.41264C38.7031 5.66264 39.1953 5.0831 39.826 4.67401C40.4567 4.26065 41.1854 4.05398 42.0121 4.05398C42.6513 4.05398 43.1584 4.16051 43.5334 4.37358C43.9126 4.58239 44.2024 4.82102 44.4027 5.08949C44.6072 5.35369 44.7649 5.57102 44.8757 5.74148H45.0291V4.18182H46.4865V14.2812C46.4865 15.125 46.2947 15.8111 45.9112 16.3395C45.532 16.8722 45.0206 17.2621 44.3771 17.5092C43.7379 17.7607 43.0263 17.8864 42.2422 17.8864ZM42.1911 12.4915C42.7962 12.4915 43.3075 12.353 43.7251 12.076C44.1428 11.799 44.4602 11.4006 44.6776 10.8807C44.8949 10.3608 45.0036 9.73864 45.0036 9.0142C45.0036 8.30682 44.897 7.68253 44.6839 7.14134C44.4709 6.60014 44.1555 6.17614 43.7379 5.86932C43.3203 5.5625 42.8047 5.40909 42.1911 5.40909C41.5518 5.40909 41.0192 5.57102 40.593 5.89489C40.1712 6.21875 39.8537 6.65341 39.6406 7.19886C39.4318 7.74432 39.3274 8.34943 39.3274 9.0142C39.3274 9.69602 39.4339 10.299 39.647 10.8232C39.8643 11.343 40.1839 11.7521 40.6058 12.0504C41.032 12.3445 41.5604 12.4915 42.1911 12.4915ZM49.2479 14V4.18182H50.7053V5.66477H50.8075C50.9865 5.17898 51.3104 4.7848 51.7791 4.48224C52.2479 4.17969 52.7763 4.02841 53.3643 4.02841C53.4751 4.02841 53.6136 4.03054 53.7798 4.0348C53.946 4.03906 54.0717 4.04545 54.157 4.05398V5.58807C54.1058 5.57528 53.9886 5.55611 53.8054 5.53054C53.6264 5.50071 53.4368 5.4858 53.2365 5.4858C52.7592 5.4858 52.3331 5.58594 51.9581 5.78622C51.5874 5.98224 51.2933 6.25497 51.076 6.6044C50.8629 6.94957 50.7564 7.34375 50.7564 7.78693V14H49.2479ZM59.7628 14.2045C58.8168 14.2045 58.0007 13.9957 57.3146 13.5781C56.6328 13.1562 56.1065 12.5682 55.7358 11.8139C55.3693 11.0554 55.1861 10.1733 55.1861 9.16761C55.1861 8.16193 55.3693 7.27557 55.7358 6.50852C56.1065 5.73722 56.6222 5.13636 57.2827 4.70597C57.9474 4.27131 58.723 4.05398 59.6094 4.05398C60.1207 4.05398 60.6257 4.1392 61.1243 4.30966C61.6229 4.48011 62.0767 4.7571 62.4858 5.14062C62.8949 5.51989 63.2209 6.02273 63.4638 6.64915C63.7067 7.27557 63.8281 8.04687 63.8281 8.96307V9.60227H56.2599V8.2983H62.294C62.294 7.74432 62.1832 7.25 61.9616 6.81534C61.7443 6.38068 61.4332 6.03764 61.0284 5.78622C60.6278 5.5348 60.1548 5.40909 59.6094 5.40909C59.0085 5.40909 58.4886 5.55824 58.0497 5.85653C57.6151 6.15057 57.2805 6.53409 57.0462 7.0071C56.8118 7.48011 56.6946 7.98722 56.6946 8.52841V9.39773C56.6946 10.1392 56.8224 10.7678 57.0781 11.2834C57.3381 11.7947 57.6982 12.1847 58.1584 12.4531C58.6186 12.7173 59.1534 12.8494 59.7628 12.8494C60.1591 12.8494 60.517 12.794 60.8366 12.6832C61.1605 12.5682 61.4396 12.3977 61.674 12.1719C61.9084 11.9418 62.0895 11.6562 62.2173 11.3153L63.6747 11.7244C63.5213 12.2188 63.2635 12.6534 62.9013 13.0284C62.5391 13.3991 62.0916 13.6889 61.5589 13.8977C61.0263 14.1023 60.4276 14.2045 59.7628 14.2045ZM73.4865 4.18182C73.4098 3.53409 73.0987 3.03125 72.5533 2.6733C72.0078 2.31534 71.3388 2.13636 70.5462 2.13636C69.9666 2.13636 69.4595 2.23011 69.0249 2.41761C68.5945 2.60511 68.2578 2.86293 68.0149 3.19105C67.7763 3.51918 67.657 3.89204 67.657 4.30966C67.657 4.65909 67.7401 4.95952 67.9062 5.21094C68.0767 5.4581 68.294 5.66477 68.5582 5.83097C68.8224 5.9929 69.0994 6.12713 69.3892 6.23366C69.679 6.33594 69.9453 6.41903 70.1882 6.48295L71.5178 6.84091C71.8587 6.9304 72.2379 7.05398 72.6555 7.21165C73.0774 7.36932 73.4801 7.58452 73.8636 7.85724C74.2514 8.12571 74.571 8.47088 74.8224 8.89276C75.0739 9.31463 75.1996 9.83239 75.1996 10.446C75.1996 11.1534 75.0142 11.7926 74.6435 12.3636C74.277 12.9347 73.7401 13.3885 73.0327 13.7251C72.3295 14.0618 71.4751 14.2301 70.4695 14.2301C69.532 14.2301 68.7202 14.0788 68.0341 13.7763C67.3523 13.4737 66.8153 13.0518 66.4233 12.5107C66.0355 11.9695 65.8161 11.3409 65.7649 10.625H67.4013C67.4439 11.1193 67.6101 11.5284 67.8999 11.8523C68.1939 12.1719 68.5646 12.4105 69.0121 12.5682C69.4638 12.7216 69.9496 12.7983 70.4695 12.7983C71.0746 12.7983 71.6179 12.7003 72.0994 12.5043C72.581 12.304 72.9624 12.027 73.2436 11.6733C73.5249 11.3153 73.6655 10.8977 73.6655 10.4205C73.6655 9.9858 73.544 9.6321 73.3011 9.35938C73.0582 9.08665 72.7386 8.86506 72.3423 8.6946C71.946 8.52415 71.5178 8.375 71.0575 8.24716L69.4467 7.78693C68.424 7.4929 67.6143 7.07315 67.0178 6.5277C66.4212 5.98224 66.1229 5.26847 66.1229 4.38636C66.1229 3.65341 66.321 3.0142 66.7173 2.46875C67.1179 1.91903 67.6548 1.4929 68.3281 1.19034C69.0057 0.883522 69.7621 0.730113 70.5973 0.730113C71.4411 0.730113 72.1911 0.881392 72.8473 1.18395C73.5036 1.48224 74.0234 1.89133 74.407 2.41122C74.7947 2.93111 74.9993 3.52131 75.0206 4.18182H73.4865ZM82.5616 9.90909H84.3002L85.7576 11.8267L86.1412 12.3381L88.3145 15.2273H86.5758L85.144 13.3097L84.786 12.8239L82.5616 9.90909ZM88.8514 7.45455C88.8514 8.83523 88.6021 10.0284 88.1035 11.0341C87.6049 12.0398 86.921 12.8153 86.0517 13.3608C85.1824 13.9062 84.1895 14.179 83.073 14.179C81.9565 14.179 80.9636 13.9062 80.0943 13.3608C79.225 12.8153 78.541 12.0398 78.0424 11.0341C77.5439 10.0284 77.2946 8.83523 77.2946 7.45455C77.2946 6.07386 77.5439 4.88068 78.0424 3.875C78.541 2.86932 79.225 2.09375 80.0943 1.5483C80.9636 1.00284 81.9565 0.730113 83.073 0.730113C84.1895 0.730113 85.1824 1.00284 86.0517 1.5483C86.921 2.09375 87.6049 2.86932 88.1035 3.875C88.6021 4.88068 88.8514 6.07386 88.8514 7.45455ZM87.3173 7.45455C87.3173 6.32102 87.1277 5.36435 86.7484 4.58452C86.3734 3.80469 85.8642 3.21449 85.2207 2.81392C84.5815 2.41335 83.8656 2.21307 83.073 2.21307C82.2804 2.21307 81.5623 2.41335 80.9189 2.81392C80.2797 3.21449 79.7704 3.80469 79.3912 4.58452C79.0162 5.36435 78.8287 6.32102 78.8287 7.45455C78.8287 8.58807 79.0162 9.54474 79.3912 10.3246C79.7704 11.1044 80.2797 11.6946 80.9189 12.0952C81.5623 12.4957 82.2804 12.696 83.073 12.696C83.8656 12.696 84.5815 12.4957 85.2207 12.0952C85.8642 11.6946 86.3734 11.1044 86.7484 10.3246C87.1277 9.54474 87.3173 8.58807 87.3173 7.45455ZM91.5169 14V0.909091H93.1021V12.5938H99.1873V14H91.5169Z" fill="#4B5563"/>
</svg>
